# xmcd
#
# Track frame offsets:
# 150
# 17065
# 32640
# 49882
# 65905
# 79475
# 98727
# 110660
# 129327
# 148067
#
# Disc length: 2164 seconds
#
#
# Revision: 0
# Processed by: cddbd v1.5.2PL0 Copyright (c) Steve Scherf et al.
# Submitted via: FreeRIP 2.945 
#
DISCID=8f08720a
DTITLE=Restless Heart - Super Hits 
DYEAR=2004
DGENRE=Crossover
TTITLE0=01-Wheels
TTITLE1=02-That Rock Won't Roll
TTITLE2=03-Heartbreak Kid
TTITLE3=04-Big Dreams In A Small Town
TTITLE4=05-A Little More Coal On The Fire
TTITLE5=06-I'll Still Be Loving You
TTITLE6=07-You Can Depend On Me
TTITLE7=08-Meet Me On The Other Side
TTITLE8=09-Born In A High Wind
TTITLE9=10-Mind Over Matters Of The Heart
EXTD=RCA/BMG Comp
EXTT0=
EXTT1=
EXTT2=
EXTT3=
EXTT4=
EXTT5=
EXTT6=
EXTT7=
EXTT8=
EXTT9=
PLAYORDER=
